<mxfile host="app.diagrams.net" agent="Mozilla/5.0 (Windows NT 10.0; Win64; x64) AppleWebKit/537.36 (KHTML, like Gecko) Chrome/135.0.0.0 Safari/537.36" version="26.2.12">
  <diagram name="Page-1" id="efa7a0a1-bf9b-a30e-e6df-94a7791c09e9">
    <mxGraphModel grid="1" page="1" gridSize="10" guides="1" tooltips="1" connect="1" arrows="1" fold="1" pageScale="1" pageWidth="1654" pageHeight="1169" background="none" math="0" shadow="0">
      <root>
        <mxCell id="0" />
        <mxCell id="1" parent="0" />
        <mxCell id="20" value="&lt;p style=&quot;margin: 4px 0px 0px; text-decoration: underline;&quot;&gt;&lt;b style=&quot;&quot;&gt;&lt;font style=&quot;font-size: 40px;&quot;&gt;分散型図書館App&lt;/font&gt;&lt;/b&gt;&lt;/p&gt;&lt;p style=&quot;margin: 4px 0px 0px; text-decoration: underline;&quot;&gt;&lt;b style=&quot;&quot;&gt;&lt;font style=&quot;font-size: 30px;&quot;&gt;画面遷移図&lt;/font&gt;&lt;/b&gt;&lt;/p&gt;" style="verticalAlign=top;align=center;overflow=fill;fontSize=12;fontFamily=Helvetica;html=1;strokeColor=none;shadow=0;fillColor=#FF99FF;rounded=0;fontColor=#333333;gradientColor=#FFFFFF;gradientDirection=radial;glass=0;" vertex="1" parent="1">
          <mxGeometry x="650" y="30" width="355" height="100" as="geometry" />
        </mxCell>
        <mxCell id="cY-1yqoEfhJSKRyBjSnI-115" value="" style="endArrow=open;endSize=12;startArrow=open;startSize=14;startFill=0;edgeStyle=orthogonalEdgeStyle;rounded=0;endFill=0;exitX=1.019;exitY=0.059;exitDx=0;exitDy=0;exitPerimeter=0;" edge="1" parent="1">
          <mxGeometry as="geometry">
            <mxPoint x="520" y="269.4725000000001" as="sourcePoint" />
            <mxPoint x="600" y="270" as="targetPoint" />
          </mxGeometry>
        </mxCell>
        <mxCell id="cY-1yqoEfhJSKRyBjSnI-119" value="" style="endArrow=open;endSize=12;startArrow=open;startSize=14;startFill=0;edgeStyle=orthogonalEdgeStyle;rounded=0;endFill=0;exitX=-0.004;exitY=0.872;exitDx=0;exitDy=0;exitPerimeter=0;entryX=1.021;entryY=0.755;entryDx=0;entryDy=0;entryPerimeter=0;" edge="1" parent="1">
          <mxGeometry x="389.35999999999996" y="350" as="geometry">
            <mxPoint x="879.3599999999999" y="365.68000000000006" as="sourcePoint" />
            <mxPoint x="523.3599999999999" y="334.01250000000005" as="targetPoint" />
            <Array as="points">
              <mxPoint x="820" y="366" />
              <mxPoint x="820" y="400" />
              <mxPoint x="560" y="400" />
              <mxPoint x="560" y="334" />
            </Array>
          </mxGeometry>
        </mxCell>
        <mxCell id="cY-1yqoEfhJSKRyBjSnI-120" value="" style="endArrow=open;endSize=12;startArrow=oval;startSize=14;startFill=0;edgeStyle=orthogonalEdgeStyle;rounded=0;endFill=0;exitX=0.25;exitY=0.956;exitDx=0;exitDy=0;entryX=0.5;entryY=0;entryDx=0;entryDy=0;exitPerimeter=0;" edge="1" parent="1" source="nrbHsKaJ4wWg0wiDeWLV-51" target="nrbHsKaJ4wWg0wiDeWLV-52">
          <mxGeometry as="geometry">
            <mxPoint x="920" y="390" as="sourcePoint" />
            <mxPoint x="240" y="480" as="targetPoint" />
            <Array as="points">
              <mxPoint x="920" y="460" />
              <mxPoint x="120" y="460" />
            </Array>
          </mxGeometry>
        </mxCell>
        <mxCell id="cY-1yqoEfhJSKRyBjSnI-144" value="ログイン" style="edgeLabel;html=1;align=center;verticalAlign=middle;resizable=0;points=[];" vertex="1" connectable="0" parent="cY-1yqoEfhJSKRyBjSnI-120">
          <mxGeometry relative="1" as="geometry">
            <mxPoint x="108" y="-10" as="offset" />
          </mxGeometry>
        </mxCell>
        <mxCell id="cY-1yqoEfhJSKRyBjSnI-124" value="" style="endArrow=open;endSize=12;startArrow=oval;startSize=14;startFill=0;edgeStyle=orthogonalEdgeStyle;rounded=0;endFill=0;entryX=-0.007;entryY=0.37;entryDx=0;entryDy=0;entryPerimeter=0;" edge="1" parent="1" target="nrbHsKaJ4wWg0wiDeWLV-36">
          <mxGeometry as="geometry">
            <mxPoint x="240" y="280" as="sourcePoint" />
            <mxPoint x="360" y="260.53" as="targetPoint" />
          </mxGeometry>
        </mxCell>
        <mxCell id="cY-1yqoEfhJSKRyBjSnI-125" value="OK" style="edgeLabel;html=1;align=center;verticalAlign=middle;resizable=0;points=[];" vertex="1" connectable="0" parent="cY-1yqoEfhJSKRyBjSnI-124">
          <mxGeometry relative="1" as="geometry">
            <mxPoint x="-11" y="-11" as="offset" />
          </mxGeometry>
        </mxCell>
        <mxCell id="cY-1yqoEfhJSKRyBjSnI-131" value="" style="endArrow=open;endSize=12;startArrow=none;startSize=14;startFill=0;edgeStyle=orthogonalEdgeStyle;rounded=0;endFill=0;entryX=0.513;entryY=1.08;entryDx=0;entryDy=0;entryPerimeter=0;" edge="1" parent="1">
          <mxGeometry as="geometry">
            <mxPoint x="160" y="350" as="sourcePoint" />
            <mxPoint x="160" y="300" as="targetPoint" />
          </mxGeometry>
        </mxCell>
        <mxCell id="nrbHsKaJ4wWg0wiDeWLV-94" value="各画面のグローバルナビの&lt;div&gt;ログアウトのリンクから&lt;/div&gt;" style="edgeLabel;html=1;align=center;verticalAlign=middle;resizable=0;points=[];" connectable="0" vertex="1" parent="cY-1yqoEfhJSKRyBjSnI-131">
          <mxGeometry relative="1" as="geometry">
            <mxPoint x="-2" y="35" as="offset" />
          </mxGeometry>
        </mxCell>
        <mxCell id="cY-1yqoEfhJSKRyBjSnI-142" value="" style="endArrow=open;endSize=12;startArrow=oval;startSize=14;startFill=0;edgeStyle=orthogonalEdgeStyle;rounded=0;endFill=0;entryX=0.5;entryY=0;entryDx=0;entryDy=0;exitX=0.508;exitY=0.975;exitDx=0;exitDy=0;exitPerimeter=0;" edge="1" parent="1" source="nrbHsKaJ4wWg0wiDeWLV-51" target="vX_4dW7MwvL4V05lAI9i-48">
          <mxGeometry as="geometry">
            <mxPoint x="960" y="390" as="sourcePoint" />
            <mxPoint x="680" y="520" as="targetPoint" />
            <Array as="points">
              <mxPoint x="961" y="490" />
              <mxPoint x="880" y="490" />
            </Array>
          </mxGeometry>
        </mxCell>
        <mxCell id="cY-1yqoEfhJSKRyBjSnI-145" value="ログイン" style="edgeLabel;html=1;align=center;verticalAlign=middle;resizable=0;points=[];" vertex="1" connectable="0" parent="cY-1yqoEfhJSKRyBjSnI-142">
          <mxGeometry relative="1" as="geometry">
            <mxPoint x="-25" y="-10" as="offset" />
          </mxGeometry>
        </mxCell>
        <mxCell id="WFiMrmYaCdMbcwJMLZAg-29" value="" style="endArrow=open;endSize=12;startArrow=oval;startSize=14;startFill=0;edgeStyle=orthogonalEdgeStyle;rounded=0;endFill=0;exitX=1.018;exitY=0.316;exitDx=0;exitDy=0;exitPerimeter=0;" edge="1" parent="1">
          <mxGeometry as="geometry">
            <mxPoint x="1040" y="253.72000000000003" as="sourcePoint" />
            <mxPoint x="1040.12" y="310" as="targetPoint" />
            <Array as="points">
              <mxPoint x="1120" y="254" />
              <mxPoint x="1120" y="310" />
            </Array>
          </mxGeometry>
        </mxCell>
        <mxCell id="WFiMrmYaCdMbcwJMLZAg-30" value="ログイン失敗" style="edgeLabel;html=1;align=center;verticalAlign=middle;resizable=0;points=[];" vertex="1" connectable="0" parent="WFiMrmYaCdMbcwJMLZAg-29">
          <mxGeometry relative="1" as="geometry">
            <mxPoint x="-30" y="-42" as="offset" />
          </mxGeometry>
        </mxCell>
        <mxCell id="mkv9fkLp9Ms-F_vhzMfG-32" value="" style="endArrow=open;endSize=12;startArrow=oval;startSize=14;startFill=0;edgeStyle=orthogonalEdgeStyle;rounded=0;endFill=0;exitX=1.019;exitY=0.059;exitDx=0;exitDy=0;exitPerimeter=0;entryX=-0.012;entryY=0.467;entryDx=0;entryDy=0;entryPerimeter=0;" edge="1" parent="1">
          <mxGeometry as="geometry">
            <mxPoint x="760" y="288.25250000000005" as="sourcePoint" />
            <mxPoint x="878.0799999999999" y="288.73" as="targetPoint" />
          </mxGeometry>
        </mxCell>
        <mxCell id="nrbHsKaJ4wWg0wiDeWLV-29" value="ログアウト画面" style="swimlane;fontStyle=1;childLayout=stackLayout;horizontal=1;startSize=26;horizontalStack=0;resizeParent=1;resizeParentMax=0;resizeLast=0;collapsible=1;marginBottom=0;align=center;fontSize=14;fillColor=#f8cecc;strokeColor=#b85450;" vertex="1" parent="1">
          <mxGeometry x="80" y="200" width="160" height="100" as="geometry" />
        </mxCell>
        <mxCell id="nrbHsKaJ4wWg0wiDeWLV-30" value="&lt;span style=&quot;text-wrap-mode: nowrap;&quot;&gt;・ログアウトしました表示&lt;/span&gt;" style="text;strokeColor=none;fillColor=none;spacingLeft=4;spacingRight=4;overflow=hidden;rotatable=0;points=[[0,0.5],[1,0.5]];portConstraint=eastwest;fontSize=12;whiteSpace=wrap;html=1;" vertex="1" parent="nrbHsKaJ4wWg0wiDeWLV-29">
          <mxGeometry y="26" width="160" height="30" as="geometry" />
        </mxCell>
        <mxCell id="nrbHsKaJ4wWg0wiDeWLV-32" value="・&lt;span style=&quot;background-color: transparent; text-wrap-mode: nowrap; color: light-dark(rgb(0, 0, 0), rgb(255, 255, 255));&quot;&gt;「OK」ボタン&lt;/span&gt;&lt;p style=&quot;text-wrap-mode: nowrap; margin: 0px 0px 0px 8px;&quot;&gt;　→TOP画面へ&lt;/p&gt;" style="text;strokeColor=none;fillColor=none;spacingLeft=4;spacingRight=4;overflow=hidden;rotatable=0;points=[[0,0.5],[1,0.5]];portConstraint=eastwest;fontSize=12;whiteSpace=wrap;html=1;" vertex="1" parent="nrbHsKaJ4wWg0wiDeWLV-29">
          <mxGeometry y="56" width="160" height="44" as="geometry" />
        </mxCell>
        <mxCell id="nrbHsKaJ4wWg0wiDeWLV-33" value="TOP画面" style="swimlane;fontStyle=1;childLayout=stackLayout;horizontal=1;startSize=26;horizontalStack=0;resizeParent=1;resizeParentMax=0;resizeLast=0;collapsible=1;marginBottom=0;align=center;fontSize=14;fillColor=#fff2cc;strokeColor=#d6b656;" vertex="1" parent="1">
          <mxGeometry x="360" y="200" width="160" height="166" as="geometry" />
        </mxCell>
        <mxCell id="nrbHsKaJ4wWg0wiDeWLV-34" value="&lt;span style=&quot;text-wrap-mode: nowrap;&quot;&gt;（未ログインユーザー用）&lt;/span&gt;" style="text;strokeColor=none;fillColor=none;spacingLeft=4;spacingRight=4;overflow=hidden;rotatable=0;points=[[0,0.5],[1,0.5]];portConstraint=eastwest;fontSize=12;whiteSpace=wrap;html=1;" vertex="1" parent="nrbHsKaJ4wWg0wiDeWLV-33">
          <mxGeometry y="26" width="160" height="24" as="geometry" />
        </mxCell>
        <mxCell id="nrbHsKaJ4wWg0wiDeWLV-36" value="・&lt;span style=&quot;text-wrap-mode: nowrap;&quot;&gt;蔵書検索できる。&lt;/span&gt;&lt;div&gt;&lt;span style=&quot;text-wrap-mode: nowrap; background-color: transparent; color: light-dark(rgb(0, 0, 0), rgb(255, 255, 255));&quot;&gt;（&lt;/span&gt;&lt;span style=&quot;text-wrap-mode: nowrap; background-color: transparent; color: light-dark(rgb(0, 0, 0), rgb(255, 255, 255));&quot;&gt;ISBN・雑誌ID、&lt;/span&gt;&lt;/div&gt;&lt;div&gt;&lt;span style=&quot;text-wrap-mode: nowrap; background-color: transparent; color: light-dark(rgb(0, 0, 0), rgb(255, 255, 255));&quot;&gt;　タイトル、著者名&lt;/span&gt;&lt;span style=&quot;text-wrap-mode: nowrap; background-color: transparent; color: light-dark(rgb(0, 0, 0), rgb(255, 255, 255));&quot;&gt;）&lt;/span&gt;&lt;/div&gt;&lt;div&gt;&lt;span style=&quot;background-color: transparent; color: light-dark(rgb(0, 0, 0), rgb(255, 255, 255)); text-wrap-mode: nowrap;&quot;&gt;　「書籍など詳細」への&lt;/span&gt;&lt;/div&gt;&lt;div&gt;&lt;span style=&quot;background-color: transparent; color: light-dark(rgb(0, 0, 0), rgb(255, 255, 255)); text-wrap-mode: nowrap;&quot;&gt;　リンクを表示&lt;/span&gt;&lt;/div&gt;" style="text;strokeColor=none;fillColor=none;spacingLeft=4;spacingRight=4;overflow=hidden;rotatable=0;points=[[0,0.5],[1,0.5]];portConstraint=eastwest;fontSize=12;whiteSpace=wrap;html=1;" vertex="1" parent="nrbHsKaJ4wWg0wiDeWLV-33">
          <mxGeometry y="50" width="160" height="80" as="geometry" />
        </mxCell>
        <mxCell id="nrbHsKaJ4wWg0wiDeWLV-35" value="・&lt;span style=&quot;text-wrap-mode: nowrap; background-color: transparent; color: light-dark(rgb(0, 0, 0), rgb(255, 255, 255));&quot;&gt;蔵書の状態（貸出可/&lt;/span&gt;&lt;div&gt;&lt;span style=&quot;text-wrap-mode: nowrap; background-color: transparent; color: light-dark(rgb(0, 0, 0), rgb(255, 255, 255));&quot;&gt;　貸出中/&lt;/span&gt;&lt;span style=&quot;text-wrap-mode: nowrap; background-color: transparent; color: light-dark(rgb(0, 0, 0), rgb(255, 255, 255));&quot;&gt;貸出不可）を表示&lt;/span&gt;&lt;/div&gt;" style="text;strokeColor=none;fillColor=none;spacingLeft=4;spacingRight=4;overflow=hidden;rotatable=0;points=[[0,0.5],[1,0.5]];portConstraint=eastwest;fontSize=12;whiteSpace=wrap;html=1;" vertex="1" parent="nrbHsKaJ4wWg0wiDeWLV-33">
          <mxGeometry y="130" width="160" height="36" as="geometry" />
        </mxCell>
        <mxCell id="nrbHsKaJ4wWg0wiDeWLV-39" value="書籍など詳細" style="swimlane;fontStyle=1;childLayout=stackLayout;horizontal=1;startSize=26;horizontalStack=0;resizeParent=1;resizeParentMax=0;resizeLast=0;collapsible=1;marginBottom=0;align=center;fontSize=14;fillColor=#fff2cc;strokeColor=#d6b656;" vertex="1" parent="1">
          <mxGeometry x="600" y="200" width="160" height="170" as="geometry" />
        </mxCell>
        <mxCell id="nrbHsKaJ4wWg0wiDeWLV-40" value="&lt;span style=&quot;text-wrap-mode: nowrap;&quot;&gt;・&lt;/span&gt;&lt;span style=&quot;background-color: transparent; color: light-dark(rgb(0, 0, 0), rgb(255, 255, 255)); text-wrap-mode: nowrap;&quot;&gt;書籍などの詳細確認。&lt;/span&gt;&lt;div&gt;&lt;span style=&quot;text-wrap-mode: nowrap; background-color: transparent; color: light-dark(rgb(0, 0, 0), rgb(255, 255, 255));&quot;&gt;　（ISBN・雑誌ID，&lt;/span&gt;&lt;/div&gt;&lt;div&gt;&lt;span style=&quot;text-wrap-mode: nowrap; background-color: transparent; color: light-dark(rgb(0, 0, 0), rgb(255, 255, 255));&quot;&gt;　書庫IDリスト，表紙画像&lt;/span&gt;&lt;/div&gt;&lt;div&gt;&lt;span style=&quot;background-color: transparent; text-wrap-mode: nowrap; color: light-dark(rgb(0, 0, 0), rgb(255, 255, 255));&quot;&gt;　タイトル、著者名，など&lt;/span&gt;&lt;/div&gt;" style="text;strokeColor=none;fillColor=none;spacingLeft=4;spacingRight=4;overflow=hidden;rotatable=0;points=[[0,0.5],[1,0.5]];portConstraint=eastwest;fontSize=12;whiteSpace=wrap;html=1;" vertex="1" parent="nrbHsKaJ4wWg0wiDeWLV-39">
          <mxGeometry y="26" width="160" height="74" as="geometry" />
        </mxCell>
        <mxCell id="iXQRbrCyZmEMHn_0jFZ1-22" value="・&lt;span style=&quot;text-wrap-mode: nowrap; background-color: transparent; color: light-dark(rgb(0, 0, 0), rgb(255, 255, 255));&quot;&gt;蔵書の状態（貸出可/&lt;/span&gt;&lt;div&gt;&lt;span style=&quot;text-wrap-mode: nowrap; background-color: transparent; color: light-dark(rgb(0, 0, 0), rgb(255, 255, 255));&quot;&gt;　貸出中/&lt;/span&gt;&lt;span style=&quot;text-wrap-mode: nowrap; background-color: transparent; color: light-dark(rgb(0, 0, 0), rgb(255, 255, 255));&quot;&gt;貸出不可）を表示&lt;/span&gt;&lt;/div&gt;" style="text;strokeColor=none;fillColor=none;spacingLeft=4;spacingRight=4;overflow=hidden;rotatable=0;points=[[0,0.5],[1,0.5]];portConstraint=eastwest;fontSize=12;whiteSpace=wrap;html=1;" vertex="1" parent="nrbHsKaJ4wWg0wiDeWLV-39">
          <mxGeometry y="100" width="160" height="40" as="geometry" />
        </mxCell>
        <mxCell id="iXQRbrCyZmEMHn_0jFZ1-20" value="・レビュー&lt;span style=&quot;background-color: transparent; color: light-dark(rgb(0, 0, 0), rgb(255, 255, 255)); text-wrap-mode: nowrap;&quot;&gt;を表示&lt;/span&gt;" style="text;strokeColor=none;fillColor=none;spacingLeft=4;spacingRight=4;overflow=hidden;rotatable=0;points=[[0,0.5],[1,0.5]];portConstraint=eastwest;fontSize=12;whiteSpace=wrap;html=1;" vertex="1" parent="nrbHsKaJ4wWg0wiDeWLV-39">
          <mxGeometry y="140" width="160" height="30" as="geometry" />
        </mxCell>
        <mxCell id="nrbHsKaJ4wWg0wiDeWLV-45" value="ログイン画面" style="swimlane;fontStyle=1;childLayout=stackLayout;horizontal=1;startSize=26;horizontalStack=0;resizeParent=1;resizeParentMax=0;resizeLast=0;collapsible=1;marginBottom=0;align=center;fontSize=14;fillColor=#f8cecc;strokeColor=#b85450;" vertex="1" parent="1">
          <mxGeometry x="880" y="200" width="160" height="206" as="geometry" />
        </mxCell>
        <mxCell id="nrbHsKaJ4wWg0wiDeWLV-46" value="&lt;span style=&quot;text-wrap-mode: nowrap;&quot;&gt;・&lt;/span&gt;&lt;span style=&quot;text-wrap-mode: nowrap;&quot;&gt;ユーザー名の入力欄&lt;/span&gt;" style="text;strokeColor=none;fillColor=none;spacingLeft=4;spacingRight=4;overflow=hidden;rotatable=0;points=[[0,0.5],[1,0.5]];portConstraint=eastwest;fontSize=12;whiteSpace=wrap;html=1;" vertex="1" parent="nrbHsKaJ4wWg0wiDeWLV-45">
          <mxGeometry y="26" width="160" height="24" as="geometry" />
        </mxCell>
        <mxCell id="nrbHsKaJ4wWg0wiDeWLV-47" value="・&lt;span style=&quot;text-wrap-mode: nowrap;&quot;&gt;パスワードの入力欄&lt;/span&gt;" style="text;strokeColor=none;fillColor=none;spacingLeft=4;spacingRight=4;overflow=hidden;rotatable=0;points=[[0,0.5],[1,0.5]];portConstraint=eastwest;fontSize=12;whiteSpace=wrap;html=1;" vertex="1" parent="nrbHsKaJ4wWg0wiDeWLV-45">
          <mxGeometry y="50" width="160" height="20" as="geometry" />
        </mxCell>
        <mxCell id="nrbHsKaJ4wWg0wiDeWLV-48" value="&lt;span style=&quot;color: light-dark(rgb(0, 0, 0), rgb(237, 237, 237)); background-color: transparent;&quot;&gt;（&lt;/span&gt;&lt;span style=&quot;color: light-dark(rgb(0, 0, 0), rgb(237, 237, 237)); text-wrap-mode: nowrap; background-color: transparent;&quot;&gt;司書/利用者で画面の&lt;/span&gt;&lt;div&gt;&lt;span style=&quot;color: light-dark(rgb(0, 0, 0), rgb(237, 237, 237)); text-wrap-mode: nowrap; background-color: transparent;&quot;&gt;　区別はない）&lt;/span&gt;&lt;/div&gt;" style="text;strokeColor=none;fillColor=none;spacingLeft=4;spacingRight=4;overflow=hidden;rotatable=0;points=[[0,0.5],[1,0.5]];portConstraint=eastwest;fontSize=12;whiteSpace=wrap;html=1;" vertex="1" parent="nrbHsKaJ4wWg0wiDeWLV-45">
          <mxGeometry y="70" width="160" height="36" as="geometry" />
        </mxCell>
        <mxCell id="nrbHsKaJ4wWg0wiDeWLV-49" value="・&lt;span style=&quot;color: light-dark(rgb(0, 0, 0), rgb(237, 237, 237)); text-wrap-mode: nowrap; background-color: transparent;&quot;&gt;「ログイン」ボタン&lt;/span&gt;&lt;p style=&quot;text-wrap-mode: nowrap; margin: 0px 0px 0px 8px;&quot;&gt;&lt;font style=&quot;color: rgb(0, 0, 0);&quot;&gt;　→各ユーザー画面へ&lt;/font&gt;&lt;/p&gt;" style="text;strokeColor=none;fillColor=none;spacingLeft=4;spacingRight=4;overflow=hidden;rotatable=0;points=[[0,0.5],[1,0.5]];portConstraint=eastwest;fontSize=12;whiteSpace=wrap;html=1;" vertex="1" parent="nrbHsKaJ4wWg0wiDeWLV-45">
          <mxGeometry y="106" width="160" height="30" as="geometry" />
        </mxCell>
        <mxCell id="nrbHsKaJ4wWg0wiDeWLV-50" value="・&lt;span style=&quot;color: light-dark(rgb(0, 0, 0), rgb(237, 237, 237)); text-wrap-mode: nowrap; background-color: transparent;&quot;&gt;「キャンセル」ボタン&lt;/span&gt;&lt;p style=&quot;text-wrap-mode: nowrap; margin: 0px 0px 0px 8px;&quot;&gt;&lt;font style=&quot;color: rgb(0, 0, 0);&quot;&gt;　→TOP画面へ&lt;/font&gt;&lt;/p&gt;" style="text;strokeColor=none;fillColor=none;spacingLeft=4;spacingRight=4;overflow=hidden;rotatable=0;points=[[0,0.5],[1,0.5]];portConstraint=eastwest;fontSize=12;whiteSpace=wrap;html=1;" vertex="1" parent="nrbHsKaJ4wWg0wiDeWLV-45">
          <mxGeometry y="136" width="160" height="30" as="geometry" />
        </mxCell>
        <mxCell id="nrbHsKaJ4wWg0wiDeWLV-51" value="・&lt;span style=&quot;color: light-dark(rgb(0, 0, 0), rgb(237, 237, 237)); text-wrap-mode: nowrap; background-color: transparent;&quot;&gt;必要ならログイン失敗を&lt;/span&gt;&lt;p style=&quot;text-wrap-mode: nowrap; margin: 0px 0px 0px 8px;&quot;&gt;&lt;font style=&quot;color: rgb(0, 0, 0);&quot;&gt;　表示する&lt;/font&gt;&lt;/p&gt;" style="text;strokeColor=none;fillColor=none;spacingLeft=4;spacingRight=4;overflow=hidden;rotatable=0;points=[[0,0.5],[1,0.5]];portConstraint=eastwest;fontSize=12;whiteSpace=wrap;html=1;" vertex="1" parent="nrbHsKaJ4wWg0wiDeWLV-45">
          <mxGeometry y="166" width="160" height="40" as="geometry" />
        </mxCell>
        <mxCell id="nrbHsKaJ4wWg0wiDeWLV-52" value="利用者ユーザー画面" style="swimlane;fontStyle=1;childLayout=stackLayout;horizontal=1;startSize=26;horizontalStack=0;resizeParent=1;resizeParentMax=0;resizeLast=0;collapsible=1;marginBottom=0;align=center;fontSize=14;fillColor=#dae8fc;strokeColor=#6c8ebf;" vertex="1" parent="1">
          <mxGeometry x="40" y="520" width="160" height="210" as="geometry" />
        </mxCell>
        <mxCell id="nrbHsKaJ4wWg0wiDeWLV-53" value="&lt;span style=&quot;text-wrap-mode: nowrap;&quot;&gt;・&lt;/span&gt;&lt;span style=&quot;text-wrap-mode: nowrap; background-color: transparent; color: light-dark(rgb(0, 0, 0), rgb(255, 255, 255));&quot;&gt;借りている本の蔵書ID、&lt;/span&gt;&lt;div&gt;&lt;span style=&quot;text-wrap-mode: nowrap; background-color: transparent; color: light-dark(rgb(0, 0, 0), rgb(255, 255, 255));&quot;&gt;　タイトル、&lt;/span&gt;&lt;span style=&quot;text-wrap-mode: nowrap; background-color: transparent; color: light-dark(rgb(0, 0, 0), rgb(255, 255, 255));&quot;&gt;著者、&lt;/span&gt;&lt;/div&gt;&lt;div&gt;&lt;span style=&quot;text-wrap-mode: nowrap; background-color: transparent; color: light-dark(rgb(0, 0, 0), rgb(255, 255, 255));&quot;&gt;　ISBN・雑誌ID、&lt;/span&gt;&lt;span style=&quot;background-color: transparent; color: light-dark(rgb(0, 0, 0), rgb(255, 255, 255)); text-wrap-mode: nowrap;&quot;&gt;借本日、&lt;/span&gt;&lt;/div&gt;&lt;div&gt;&lt;span style=&quot;background-color: transparent; color: light-dark(rgb(0, 0, 0), rgb(255, 255, 255)); text-wrap-mode: nowrap;&quot;&gt;　&lt;/span&gt;&lt;span style=&quot;background-color: transparent; color: light-dark(rgb(0, 0, 0), rgb(255, 255, 255)); text-wrap-mode: nowrap;&quot;&gt;返却日、&lt;/span&gt;&lt;span style=&quot;background-color: transparent; color: light-dark(rgb(0, 0, 0), rgb(255, 255, 255)); text-wrap-mode: nowrap;&quot;&gt;を&lt;/span&gt;&lt;span style=&quot;background-color: transparent; color: light-dark(rgb(0, 0, 0), rgb(255, 255, 255)); text-wrap-mode: nowrap;&quot;&gt;一覧表示。&lt;/span&gt;&lt;/div&gt;" style="text;strokeColor=none;fillColor=none;spacingLeft=4;spacingRight=4;overflow=hidden;rotatable=0;points=[[0,0.5],[1,0.5]];portConstraint=eastwest;fontSize=12;whiteSpace=wrap;html=1;" vertex="1" parent="nrbHsKaJ4wWg0wiDeWLV-52">
          <mxGeometry y="26" width="160" height="64" as="geometry" />
        </mxCell>
        <mxCell id="vX_4dW7MwvL4V05lAI9i-63" value="・&lt;span style=&quot;background-color: transparent; text-wrap-mode: nowrap; color: light-dark(rgb(0, 0, 0), rgb(255, 255, 255));&quot;&gt;レビュー書込へのリンク&lt;/span&gt;" style="text;strokeColor=none;fillColor=none;spacingLeft=4;spacingRight=4;overflow=hidden;rotatable=0;points=[[0,0.5],[1,0.5]];portConstraint=eastwest;fontSize=12;whiteSpace=wrap;html=1;" vertex="1" parent="nrbHsKaJ4wWg0wiDeWLV-52">
          <mxGeometry y="90" width="160" height="30" as="geometry" />
        </mxCell>
        <mxCell id="nrbHsKaJ4wWg0wiDeWLV-55" value="・&lt;span style=&quot;background-color: transparent; text-wrap-mode: nowrap; color: light-dark(rgb(0, 0, 0), rgb(255, 255, 255));&quot;&gt;「返却」ボタン&lt;/span&gt;&lt;div&gt;&lt;span style=&quot;background-color: transparent; text-wrap-mode: nowrap; color: light-dark(rgb(0, 0, 0), rgb(255, 255, 255));&quot;&gt;　※間違うと元に戻せない&lt;/span&gt;&lt;/div&gt;" style="text;strokeColor=none;fillColor=none;spacingLeft=4;spacingRight=4;overflow=hidden;rotatable=0;points=[[0,0.5],[1,0.5]];portConstraint=eastwest;fontSize=12;whiteSpace=wrap;html=1;" vertex="1" parent="nrbHsKaJ4wWg0wiDeWLV-52">
          <mxGeometry y="120" width="160" height="40" as="geometry" />
        </mxCell>
        <mxCell id="nrbHsKaJ4wWg0wiDeWLV-56" value="・&lt;span style=&quot;text-wrap-mode: nowrap;&quot;&gt;貸出遅延回数を表示&lt;/span&gt;&lt;div&gt;&lt;span style=&quot;background-color: transparent; text-wrap-mode: nowrap; color: light-dark(rgb(0, 0, 0), rgb(255, 255, 255));&quot;&gt;　&lt;/span&gt;&lt;span style=&quot;background-color: transparent; text-wrap-mode: nowrap; color: light-dark(rgb(0, 0, 0), rgb(255, 255, 255));&quot;&gt;返却日をチェックして&lt;/span&gt;&lt;/div&gt;&lt;div&gt;&lt;span style=&quot;background-color: transparent; text-wrap-mode: nowrap; color: light-dark(rgb(0, 0, 0), rgb(255, 255, 255));&quot;&gt;　貸出遅延回数に反映&lt;/span&gt;&lt;/div&gt;" style="text;strokeColor=none;fillColor=none;spacingLeft=4;spacingRight=4;overflow=hidden;rotatable=0;points=[[0,0.5],[1,0.5]];portConstraint=eastwest;fontSize=12;whiteSpace=wrap;html=1;" vertex="1" parent="nrbHsKaJ4wWg0wiDeWLV-52">
          <mxGeometry y="160" width="160" height="50" as="geometry" />
        </mxCell>
        <mxCell id="nrbHsKaJ4wWg0wiDeWLV-57" value="事前予約・直近予約" style="swimlane;fontStyle=1;childLayout=stackLayout;horizontal=1;startSize=26;horizontalStack=0;resizeParent=1;resizeParentMax=0;resizeLast=0;collapsible=1;marginBottom=0;align=center;fontSize=14;fillColor=#dae8fc;strokeColor=#6c8ebf;" vertex="1" parent="1">
          <mxGeometry x="520" y="520" width="160" height="200" as="geometry" />
        </mxCell>
        <mxCell id="nrbHsKaJ4wWg0wiDeWLV-58" value="&lt;span style=&quot;text-wrap-mode: nowrap;&quot;&gt;・貸出カレンダー表示&lt;/span&gt;&lt;div&gt;&lt;span style=&quot;text-wrap-mode: nowrap;&quot;&gt;　（３か月先以降は&lt;/span&gt;&lt;/div&gt;&lt;div&gt;&lt;span style=&quot;text-wrap-mode: nowrap;&quot;&gt;　グレーアウト）&lt;/span&gt;&lt;/div&gt;" style="text;strokeColor=none;fillColor=none;spacingLeft=4;spacingRight=4;overflow=hidden;rotatable=0;points=[[0,0.5],[1,0.5]];portConstraint=eastwest;fontSize=12;whiteSpace=wrap;html=1;" vertex="1" parent="nrbHsKaJ4wWg0wiDeWLV-57">
          <mxGeometry y="26" width="160" height="44" as="geometry" />
        </mxCell>
        <mxCell id="nrbHsKaJ4wWg0wiDeWLV-69" value="・&lt;span style=&quot;text-wrap-mode: nowrap;&quot;&gt;貸出予定日の入力欄&lt;/span&gt;&lt;div&gt;&lt;span style=&quot;text-wrap-mode: nowrap;&quot;&gt;　※直近予約ありの場合は&lt;/span&gt;&lt;/div&gt;&lt;div&gt;&lt;span style=&quot;text-wrap-mode: nowrap;&quot;&gt;　3週間は予約は不可&lt;/span&gt;&lt;/div&gt;" style="text;strokeColor=none;fillColor=none;spacingLeft=4;spacingRight=4;overflow=hidden;rotatable=0;points=[[0,0.5],[1,0.5]];portConstraint=eastwest;fontSize=12;whiteSpace=wrap;html=1;" vertex="1" parent="nrbHsKaJ4wWg0wiDeWLV-57">
          <mxGeometry y="70" width="160" height="50" as="geometry" />
        </mxCell>
        <mxCell id="nrbHsKaJ4wWg0wiDeWLV-59" value="・返却&lt;span style=&quot;text-wrap-mode: nowrap;&quot;&gt;予定日の入力欄&lt;/span&gt;&lt;div&gt;&lt;span style=&quot;text-wrap-mode: nowrap;&quot;&gt;　※貸出期間は最大3週間&lt;/span&gt;&lt;/div&gt;" style="text;strokeColor=none;fillColor=none;spacingLeft=4;spacingRight=4;overflow=hidden;rotatable=0;points=[[0,0.5],[1,0.5]];portConstraint=eastwest;fontSize=12;whiteSpace=wrap;html=1;" vertex="1" parent="nrbHsKaJ4wWg0wiDeWLV-57">
          <mxGeometry y="120" width="160" height="40" as="geometry" />
        </mxCell>
        <mxCell id="nrbHsKaJ4wWg0wiDeWLV-100" value="・利用者ユーザー画面&lt;div&gt;　へのリンク&lt;/div&gt;" style="text;strokeColor=none;fillColor=none;spacingLeft=4;spacingRight=4;overflow=hidden;rotatable=0;points=[[0,0.5],[1,0.5]];portConstraint=eastwest;fontSize=12;whiteSpace=wrap;html=1;" vertex="1" parent="nrbHsKaJ4wWg0wiDeWLV-57">
          <mxGeometry y="160" width="160" height="40" as="geometry" />
        </mxCell>
        <mxCell id="nrbHsKaJ4wWg0wiDeWLV-70" value="アカウント管理" style="swimlane;fontStyle=1;childLayout=stackLayout;horizontal=1;startSize=26;horizontalStack=0;resizeParent=1;resizeParentMax=0;resizeLast=0;collapsible=1;marginBottom=0;align=center;fontSize=14;fillColor=#d5e8d4;strokeColor=#82b366;" vertex="1" parent="1">
          <mxGeometry x="1280" y="560" width="160" height="170" as="geometry" />
        </mxCell>
        <mxCell id="nrbHsKaJ4wWg0wiDeWLV-72" value="&lt;span style=&quot;text-wrap-mode: nowrap;&quot;&gt;・&lt;/span&gt;&lt;span style=&quot;text-wrap-mode: nowrap; background-color: transparent; color: light-dark(rgb(0, 0, 0), rgb(255, 255, 255));&quot;&gt;利用&lt;/span&gt;&lt;span style=&quot;text-wrap-mode: nowrap; background-color: transparent; color: light-dark(rgb(0, 0, 0), rgb(255, 255, 255));&quot;&gt;ユーザーの&lt;/span&gt;&lt;div&gt;&lt;span style=&quot;text-wrap-mode: nowrap; background-color: transparent; color: light-dark(rgb(0, 0, 0), rgb(255, 255, 255));&quot;&gt;　アカウント名＆&lt;/span&gt;&lt;/div&gt;&lt;div&gt;&lt;span style=&quot;text-wrap-mode: nowrap; background-color: transparent; color: light-dark(rgb(0, 0, 0), rgb(255, 255, 255));&quot;&gt;　パスワード&lt;/span&gt;&lt;span style=&quot;background-color: transparent; text-wrap-mode: nowrap; color: light-dark(rgb(0, 0, 0), rgb(255, 255, 255));&quot;&gt;の入力欄&lt;/span&gt;&lt;/div&gt;&lt;div&gt;&lt;span style=&quot;background-color: transparent; text-wrap-mode: nowrap; color: light-dark(rgb(0, 0, 0), rgb(255, 255, 255));&quot;&gt;　→&lt;/span&gt;&lt;span style=&quot;text-wrap-mode: nowrap; background-color: transparent; color: light-dark(rgb(0, 0, 0), rgb(255, 255, 255));&quot;&gt;「新規登録」ボタン&lt;/span&gt;&lt;/div&gt;" style="text;strokeColor=none;fillColor=none;spacingLeft=4;spacingRight=4;overflow=hidden;rotatable=0;points=[[0,0.5],[1,0.5]];portConstraint=eastwest;fontSize=12;whiteSpace=wrap;html=1;" vertex="1" parent="nrbHsKaJ4wWg0wiDeWLV-70">
          <mxGeometry y="26" width="160" height="64" as="geometry" />
        </mxCell>
        <mxCell id="nrbHsKaJ4wWg0wiDeWLV-73" value="&lt;span style=&quot;text-wrap-mode: nowrap;&quot;&gt;・&lt;/span&gt;&lt;span style=&quot;color: light-dark(rgb(0, 0, 0), rgb(255, 255, 255)); text-wrap-mode: nowrap; background-color: transparent;&quot;&gt;利用&lt;/span&gt;&lt;span style=&quot;color: light-dark(rgb(0, 0, 0), rgb(255, 255, 255)); text-wrap-mode: nowrap; background-color: transparent;&quot;&gt;ユーザー名の入力欄&lt;/span&gt;&lt;div&gt;&lt;span style=&quot;text-wrap-mode: nowrap; background-color: transparent; color: light-dark(rgb(0, 0, 0), rgb(255, 255, 255));&quot;&gt;→「ユーザー&lt;/span&gt;&lt;span style=&quot;text-wrap-mode: nowrap; background-color: transparent; color: light-dark(rgb(0, 0, 0), rgb(255, 255, 255));&quot;&gt;削除」ボタン&lt;/span&gt;&lt;/div&gt;" style="text;strokeColor=none;fillColor=none;spacingLeft=4;spacingRight=4;overflow=hidden;rotatable=0;points=[[0,0.5],[1,0.5]];portConstraint=eastwest;fontSize=12;whiteSpace=wrap;html=1;" vertex="1" parent="nrbHsKaJ4wWg0wiDeWLV-70">
          <mxGeometry y="90" width="160" height="40" as="geometry" />
        </mxCell>
        <mxCell id="nrbHsKaJ4wWg0wiDeWLV-74" value="・&lt;span style=&quot;text-wrap-mode: nowrap;&quot;&gt;司書ユーザ画面&lt;/span&gt;&lt;div&gt;&lt;span style=&quot;background-color: transparent; text-wrap-mode: nowrap; color: light-dark(rgb(0, 0, 0), rgb(255, 255, 255));&quot;&gt;　へのリンク&lt;/span&gt;&lt;/div&gt;" style="text;strokeColor=none;fillColor=none;spacingLeft=4;spacingRight=4;overflow=hidden;rotatable=0;points=[[0,0.5],[1,0.5]];portConstraint=eastwest;fontSize=12;whiteSpace=wrap;html=1;" vertex="1" parent="nrbHsKaJ4wWg0wiDeWLV-70">
          <mxGeometry y="130" width="160" height="40" as="geometry" />
        </mxCell>
        <mxCell id="nrbHsKaJ4wWg0wiDeWLV-93" value="" style="verticalLabelPosition=bottom;verticalAlign=top;html=1;shape=mxgraph.basic.rect;fillColor2=none;strokeWidth=4;size=20;indent=5;fillColor=none;strokeColor=#B266FF;" vertex="1" parent="1">
          <mxGeometry x="1190" y="190" width="180" height="130" as="geometry" />
        </mxCell>
        <mxCell id="nrbHsKaJ4wWg0wiDeWLV-85" value="全てのグローバルナビ" style="swimlane;fontStyle=1;childLayout=stackLayout;horizontal=1;startSize=26;horizontalStack=0;resizeParent=1;resizeParentMax=0;resizeLast=0;collapsible=1;marginBottom=0;align=center;fontSize=14;fillColor=#e1d5e7;strokeColor=#9673a6;" vertex="1" parent="1">
          <mxGeometry x="1200" y="200" width="160" height="110" as="geometry" />
        </mxCell>
        <mxCell id="nrbHsKaJ4wWg0wiDeWLV-86" value="&lt;span style=&quot;text-wrap-mode: nowrap;&quot;&gt;・アプリ名を表示&lt;/span&gt;" style="text;strokeColor=none;fillColor=none;spacingLeft=4;spacingRight=4;overflow=hidden;rotatable=0;points=[[0,0.5],[1,0.5]];portConstraint=eastwest;fontSize=12;whiteSpace=wrap;html=1;" vertex="1" parent="nrbHsKaJ4wWg0wiDeWLV-85">
          <mxGeometry y="26" width="160" height="24" as="geometry" />
        </mxCell>
        <mxCell id="nrbHsKaJ4wWg0wiDeWLV-92" value="&lt;span style=&quot;text-wrap-mode: nowrap;&quot;&gt;・ログイン状態を表示&lt;/span&gt;" style="text;strokeColor=none;fillColor=none;spacingLeft=4;spacingRight=4;overflow=hidden;rotatable=0;points=[[0,0.5],[1,0.5]];portConstraint=eastwest;fontSize=12;whiteSpace=wrap;html=1;" vertex="1" parent="nrbHsKaJ4wWg0wiDeWLV-85">
          <mxGeometry y="50" width="160" height="24" as="geometry" />
        </mxCell>
        <mxCell id="nrbHsKaJ4wWg0wiDeWLV-87" value="・&lt;span style=&quot;text-wrap-mode: nowrap;&quot;&gt;ログイン画面&lt;/span&gt;&lt;span style=&quot;text-wrap-mode: nowrap;&quot;&gt;または&lt;/span&gt;&lt;div&gt;&lt;span style=&quot;text-wrap-mode: nowrap;&quot;&gt;　ログアウト画面のリンク&lt;/span&gt;&lt;div&gt;&lt;span style=&quot;text-wrap-mode: nowrap;&quot;&gt;　&lt;/span&gt;&lt;/div&gt;&lt;/div&gt;" style="text;strokeColor=none;fillColor=none;spacingLeft=4;spacingRight=4;overflow=hidden;rotatable=0;points=[[0,0.5],[1,0.5]];portConstraint=eastwest;fontSize=12;whiteSpace=wrap;html=1;" vertex="1" parent="nrbHsKaJ4wWg0wiDeWLV-85">
          <mxGeometry y="74" width="160" height="36" as="geometry" />
        </mxCell>
        <mxCell id="nrbHsKaJ4wWg0wiDeWLV-95" value="" style="endArrow=open;endSize=12;startArrow=open;startSize=14;startFill=0;edgeStyle=orthogonalEdgeStyle;rounded=0;endFill=0;exitX=1.019;exitY=0.059;exitDx=0;exitDy=0;exitPerimeter=0;entryX=0;entryY=0.269;entryDx=0;entryDy=0;entryPerimeter=0;" edge="1" parent="1" target="vX_4dW7MwvL4V05lAI9i-82">
          <mxGeometry as="geometry">
            <mxPoint x="200" y="560.0025" as="sourcePoint" />
            <mxPoint x="240" y="560.5" as="targetPoint" />
          </mxGeometry>
        </mxCell>
        <mxCell id="iXQRbrCyZmEMHn_0jFZ1-29" value="" style="endArrow=open;endSize=12;startArrow=open;startSize=14;startFill=0;edgeStyle=orthogonalEdgeStyle;rounded=0;endFill=0;entryX=0;entryY=0.5;entryDx=0;entryDy=0;" edge="1" parent="1" target="nrbHsKaJ4wWg0wiDeWLV-59">
          <mxGeometry as="geometry">
            <mxPoint x="200" y="660" as="sourcePoint" />
            <mxPoint x="440" y="660.5" as="targetPoint" />
            <Array as="points" />
          </mxGeometry>
        </mxCell>
        <mxCell id="vX_4dW7MwvL4V05lAI9i-20" value="" style="endArrow=open;endSize=12;startArrow=open;startSize=14;startFill=0;edgeStyle=orthogonalEdgeStyle;rounded=0;endFill=0;exitX=1.019;exitY=0.059;exitDx=0;exitDy=0;exitPerimeter=0;entryX=0;entryY=0.286;entryDx=0;entryDy=0;entryPerimeter=0;" edge="1" parent="1">
          <mxGeometry as="geometry">
            <mxPoint x="960" y="570.0025" as="sourcePoint" />
            <mxPoint x="1040" y="570.0239999999999" as="targetPoint" />
            <Array as="points">
              <mxPoint x="1001" y="571" />
              <mxPoint x="1001" y="570" />
            </Array>
          </mxGeometry>
        </mxCell>
        <mxCell id="vX_4dW7MwvL4V05lAI9i-21" value="" style="endArrow=open;endSize=12;startArrow=open;startSize=14;startFill=0;edgeStyle=orthogonalEdgeStyle;rounded=0;endFill=0;exitX=1;exitY=0.751;exitDx=0;exitDy=0;exitPerimeter=0;entryX=0.003;entryY=0.75;entryDx=0;entryDy=0;entryPerimeter=0;" edge="1" parent="1">
          <mxGeometry as="geometry">
            <mxPoint x="960" y="690.04" as="sourcePoint" />
            <mxPoint x="1280.48" y="690" as="targetPoint" />
            <Array as="points" />
          </mxGeometry>
        </mxCell>
        <mxCell id="vX_4dW7MwvL4V05lAI9i-24" value="" style="endArrow=open;endSize=12;startArrow=open;startSize=14;startFill=0;edgeStyle=orthogonalEdgeStyle;rounded=0;endFill=0;exitX=1.003;exitY=0.667;exitDx=0;exitDy=0;exitPerimeter=0;entryX=0;entryY=0.5;entryDx=0;entryDy=0;" edge="1" parent="1" source="vX_4dW7MwvL4V05lAI9i-90">
          <mxGeometry as="geometry">
            <mxPoint x="960.4799999999999" y="791.6800000000001" as="sourcePoint" />
            <mxPoint x="1040" y="820" as="targetPoint" />
            <Array as="points">
              <mxPoint x="1000" y="820" />
              <mxPoint x="1000" y="820" />
            </Array>
          </mxGeometry>
        </mxCell>
        <mxCell id="vX_4dW7MwvL4V05lAI9i-48" value="司書ユーザー画面" style="swimlane;fontStyle=1;childLayout=stackLayout;horizontal=1;startSize=26;horizontalStack=0;resizeParent=1;resizeParentMax=0;resizeLast=0;collapsible=1;marginBottom=0;align=center;fontSize=14;fillColor=#d5e8d4;strokeColor=#82b366;" vertex="1" parent="1">
          <mxGeometry x="800" y="520" width="160" height="340" as="geometry" />
        </mxCell>
        <mxCell id="vX_4dW7MwvL4V05lAI9i-60" value="&lt;span style=&quot;text-wrap-mode: nowrap;&quot;&gt;・&lt;/span&gt;&lt;span style=&quot;text-wrap-mode: nowrap;&quot;&gt;蔵書IDの入力欄&lt;/span&gt;&lt;div&gt;&lt;span style=&quot;text-wrap-mode: nowrap; background-color: transparent; color: light-dark(rgb(0, 0, 0), rgb(255, 255, 255));&quot;&gt;→蔵書ID、タイトル、著者&lt;/span&gt;&lt;/div&gt;&lt;div&gt;&lt;span style=&quot;text-wrap-mode: nowrap; background-color: transparent; color: light-dark(rgb(0, 0, 0), rgb(255, 255, 255));&quot;&gt;　ISBN・雑誌ID、借本日、&lt;/span&gt;&lt;/div&gt;&lt;div&gt;&lt;span style=&quot;text-wrap-mode: nowrap; background-color: transparent; color: light-dark(rgb(0, 0, 0), rgb(255, 255, 255));&quot;&gt;　返却日、&lt;/span&gt;&lt;span style=&quot;background-color: transparent; color: light-dark(rgb(0, 0, 0), rgb(255, 255, 255)); text-wrap-mode: nowrap;&quot;&gt;借ユーザー&lt;/span&gt;&lt;/div&gt;&lt;div&gt;&lt;span style=&quot;background-color: transparent; color: light-dark(rgb(0, 0, 0), rgb(255, 255, 255)); text-wrap-mode: nowrap;&quot;&gt;　を表示&lt;/span&gt;&lt;/div&gt;" style="text;strokeColor=none;fillColor=none;spacingLeft=4;spacingRight=4;overflow=hidden;rotatable=0;points=[[0,0.5],[1,0.5]];portConstraint=eastwest;fontSize=12;whiteSpace=wrap;html=1;" vertex="1" parent="vX_4dW7MwvL4V05lAI9i-48">
          <mxGeometry y="26" width="160" height="84" as="geometry" />
        </mxCell>
        <mxCell id="vX_4dW7MwvL4V05lAI9i-49" value="&lt;span style=&quot;text-wrap-mode: nowrap;&quot;&gt;・「レビュー」ボタン&lt;/span&gt;" style="text;strokeColor=none;fillColor=none;spacingLeft=4;spacingRight=4;overflow=hidden;rotatable=0;points=[[0,0.5],[1,0.5]];portConstraint=eastwest;fontSize=12;whiteSpace=wrap;html=1;" vertex="1" parent="vX_4dW7MwvL4V05lAI9i-48">
          <mxGeometry y="110" width="160" height="20" as="geometry" />
        </mxCell>
        <mxCell id="vX_4dW7MwvL4V05lAI9i-50" value="・&lt;span style=&quot;color: light-dark(rgb(0, 0, 0), rgb(255, 255, 255)); text-wrap-mode: nowrap; background-color: transparent;&quot;&gt;「返却」ボタン&lt;/span&gt;&lt;div&gt;&lt;span style=&quot;background-color: transparent; text-wrap-mode: nowrap; color: light-dark(rgb(0, 0, 0), rgb(255, 255, 255));&quot;&gt;　※間違うと元に戻せない&lt;/span&gt;&lt;/div&gt;" style="text;strokeColor=none;fillColor=none;spacingLeft=4;spacingRight=4;overflow=hidden;rotatable=0;points=[[0,0.5],[1,0.5]];portConstraint=eastwest;fontSize=12;whiteSpace=wrap;html=1;" vertex="1" parent="vX_4dW7MwvL4V05lAI9i-48">
          <mxGeometry y="130" width="160" height="40" as="geometry" />
        </mxCell>
        <mxCell id="vX_4dW7MwvL4V05lAI9i-51" value="・&lt;span style=&quot;text-wrap-mode: nowrap;&quot;&gt;貸出カレンダー表示&lt;/span&gt;&lt;div&gt;&lt;span style=&quot;text-wrap-mode: nowrap;&quot;&gt;　&lt;/span&gt;&lt;span style=&quot;text-wrap-mode: nowrap; background-color: transparent; color: light-dark(rgb(0, 0, 0), rgb(255, 255, 255));&quot;&gt;（３か月先以降は&lt;/span&gt;&lt;/div&gt;&lt;div&gt;&lt;span style=&quot;text-wrap-mode: nowrap;&quot;&gt;　グレーアウト）&lt;/span&gt;&lt;/div&gt;" style="text;strokeColor=none;fillColor=none;spacingLeft=4;spacingRight=4;overflow=hidden;rotatable=0;points=[[0,0.5],[1,0.5]];portConstraint=eastwest;fontSize=12;whiteSpace=wrap;html=1;" vertex="1" parent="vX_4dW7MwvL4V05lAI9i-48">
          <mxGeometry y="170" width="160" height="50" as="geometry" />
        </mxCell>
        <mxCell id="vX_4dW7MwvL4V05lAI9i-52" value="・&lt;span style=&quot;text-wrap-mode: nowrap;&quot;&gt;蔵書新規登録&lt;/span&gt;&lt;span style=&quot;text-wrap-mode: nowrap; background-color: transparent; color: light-dark(rgb(0, 0, 0), rgb(255, 255, 255));&quot;&gt;へのリンク&lt;/span&gt;" style="text;strokeColor=none;fillColor=none;spacingLeft=4;spacingRight=4;overflow=hidden;rotatable=0;points=[[0,0.5],[1,0.5]];portConstraint=eastwest;fontSize=12;whiteSpace=wrap;html=1;" vertex="1" parent="vX_4dW7MwvL4V05lAI9i-48">
          <mxGeometry y="220" width="160" height="30" as="geometry" />
        </mxCell>
        <mxCell id="vX_4dW7MwvL4V05lAI9i-53" value="・&lt;span style=&quot;text-wrap-mode: nowrap;&quot;&gt;アカウント管理&lt;/span&gt;&lt;span style=&quot;background-color: transparent; color: light-dark(rgb(0, 0, 0), rgb(255, 255, 255)); text-wrap-mode: nowrap;&quot;&gt;のリンク&lt;/span&gt;" style="text;strokeColor=none;fillColor=none;spacingLeft=4;spacingRight=4;overflow=hidden;rotatable=0;points=[[0,0.5],[1,0.5]];portConstraint=eastwest;fontSize=12;whiteSpace=wrap;html=1;" vertex="1" parent="vX_4dW7MwvL4V05lAI9i-48">
          <mxGeometry y="250" width="160" height="30" as="geometry" />
        </mxCell>
        <mxCell id="vX_4dW7MwvL4V05lAI9i-90" value="・&lt;span style=&quot;text-wrap-mode: nowrap;&quot;&gt;蔵書貸出し履歴&lt;/span&gt;&lt;span style=&quot;background-color: transparent; color: light-dark(rgb(0, 0, 0), rgb(255, 255, 255)); text-wrap-mode: nowrap;&quot;&gt;のリンク&lt;/span&gt;" style="text;strokeColor=none;fillColor=none;spacingLeft=4;spacingRight=4;overflow=hidden;rotatable=0;points=[[0,0.5],[1,0.5]];portConstraint=eastwest;fontSize=12;whiteSpace=wrap;html=1;" vertex="1" parent="vX_4dW7MwvL4V05lAI9i-48">
          <mxGeometry y="280" width="160" height="30" as="geometry" />
        </mxCell>
        <mxCell id="vX_4dW7MwvL4V05lAI9i-54" value="・レビュー書込へのリンク" style="text;strokeColor=none;fillColor=none;spacingLeft=4;spacingRight=4;overflow=hidden;rotatable=0;points=[[0,0.5],[1,0.5]];portConstraint=eastwest;fontSize=12;whiteSpace=wrap;html=1;" vertex="1" parent="vX_4dW7MwvL4V05lAI9i-48">
          <mxGeometry y="310" width="160" height="30" as="geometry" />
        </mxCell>
        <mxCell id="vX_4dW7MwvL4V05lAI9i-61" value="" style="endArrow=open;endSize=12;startArrow=none;startSize=14;startFill=0;edgeStyle=orthogonalEdgeStyle;rounded=0;endFill=0;entryX=0;entryY=0.261;entryDx=0;entryDy=0;entryPerimeter=0;" edge="1" parent="1">
          <mxGeometry as="geometry">
            <mxPoint x="121" y="810" as="sourcePoint" />
            <mxPoint x="520" y="856.9440000000001" as="targetPoint" />
            <Array as="points">
              <mxPoint x="121" y="857" />
            </Array>
          </mxGeometry>
        </mxCell>
        <mxCell id="vX_4dW7MwvL4V05lAI9i-64" value="" style="endArrow=open;endSize=12;startArrow=open;startSize=14;startFill=0;edgeStyle=orthogonalEdgeStyle;rounded=0;endFill=0;entryX=0;entryY=0.5;entryDx=0;entryDy=0;exitX=0.559;exitY=1.025;exitDx=0;exitDy=0;exitPerimeter=0;" edge="1" parent="1" source="vX_4dW7MwvL4V05lAI9i-54">
          <mxGeometry as="geometry">
            <mxPoint x="920.8" y="900.48" as="sourcePoint" />
            <mxPoint x="1280" y="900" as="targetPoint" />
            <Array as="points">
              <mxPoint x="889" y="900" />
            </Array>
          </mxGeometry>
        </mxCell>
        <mxCell id="vX_4dW7MwvL4V05lAI9i-74" value="レビュー書込" style="swimlane;fontStyle=1;childLayout=stackLayout;horizontal=1;startSize=26;horizontalStack=0;resizeParent=1;resizeParentMax=0;resizeLast=0;collapsible=1;marginBottom=0;align=center;fontSize=14;fillColor=#dae8fc;strokeColor=#6c8ebf;" vertex="1" parent="1">
          <mxGeometry x="520" y="800" width="160" height="80" as="geometry" />
        </mxCell>
        <mxCell id="vX_4dW7MwvL4V05lAI9i-75" value="&lt;span style=&quot;text-wrap-mode: nowrap;&quot;&gt;・&lt;/span&gt;&lt;span style=&quot;text-wrap-mode: nowrap;&quot;&gt;ISBN・雑誌IDを表示&lt;/span&gt;&lt;div&gt;&lt;span style=&quot;text-wrap-mode: nowrap;&quot;&gt;　レビューの入力欄&lt;/span&gt;&lt;/div&gt;&lt;div&gt;&lt;span style=&quot;text-wrap-mode: nowrap;&quot;&gt;→「書込」ボタン&lt;/span&gt;&lt;/div&gt;" style="text;strokeColor=none;fillColor=none;spacingLeft=4;spacingRight=4;overflow=hidden;rotatable=0;points=[[0,0.5],[1,0.5]];portConstraint=eastwest;fontSize=12;whiteSpace=wrap;html=1;" vertex="1" parent="vX_4dW7MwvL4V05lAI9i-74">
          <mxGeometry y="26" width="160" height="54" as="geometry" />
        </mxCell>
        <mxCell id="vX_4dW7MwvL4V05lAI9i-81" value="ユーザー貸出し履歴" style="swimlane;fontStyle=1;childLayout=stackLayout;horizontal=1;startSize=26;horizontalStack=0;resizeParent=1;resizeParentMax=0;resizeLast=0;collapsible=1;marginBottom=0;align=center;fontSize=14;fillColor=#dae8fc;strokeColor=#6c8ebf;" vertex="1" parent="1">
          <mxGeometry x="280" y="520" width="160" height="120" as="geometry" />
        </mxCell>
        <mxCell id="vX_4dW7MwvL4V05lAI9i-82" value="&lt;span style=&quot;text-wrap-mode: nowrap;&quot;&gt;・&lt;/span&gt;&lt;span style=&quot;text-wrap-mode: nowrap;&quot;&gt;利用者ユーザーの&lt;/span&gt;&lt;div&gt;&lt;span style=&quot;text-wrap-mode: nowrap;&quot;&gt;　貸出し履歴を一覧表示&lt;/span&gt;&lt;div&gt;&lt;span style=&quot;text-wrap-mode: nowrap;&quot;&gt;　（表示するだけ&lt;/span&gt;&lt;span style=&quot;text-wrap-mode: nowrap; background-color: transparent; color: light-dark(rgb(0, 0, 0), rgb(255, 255, 255));&quot;&gt;）&lt;/span&gt;&lt;/div&gt;&lt;/div&gt;" style="text;strokeColor=none;fillColor=none;spacingLeft=4;spacingRight=4;overflow=hidden;rotatable=0;points=[[0,0.5],[1,0.5]];portConstraint=eastwest;fontSize=12;whiteSpace=wrap;html=1;" vertex="1" parent="vX_4dW7MwvL4V05lAI9i-81">
          <mxGeometry y="26" width="160" height="54" as="geometry" />
        </mxCell>
        <mxCell id="vX_4dW7MwvL4V05lAI9i-83" value="・&lt;span style=&quot;text-wrap-mode: nowrap;&quot;&gt;利用者ユーザー画面&lt;/span&gt;&lt;br&gt;&lt;div&gt;&lt;span style=&quot;text-wrap-mode: nowrap;&quot;&gt;　へのリンク&lt;/span&gt;&lt;/div&gt;" style="text;strokeColor=none;fillColor=none;spacingLeft=4;spacingRight=4;overflow=hidden;rotatable=0;points=[[0,0.5],[1,0.5]];portConstraint=eastwest;fontSize=12;whiteSpace=wrap;html=1;" vertex="1" parent="vX_4dW7MwvL4V05lAI9i-81">
          <mxGeometry y="80" width="160" height="40" as="geometry" />
        </mxCell>
        <mxCell id="vX_4dW7MwvL4V05lAI9i-96" value="蔵書貸出し履歴" style="swimlane;fontStyle=1;childLayout=stackLayout;horizontal=1;startSize=26;horizontalStack=0;resizeParent=1;resizeParentMax=0;resizeLast=0;collapsible=1;marginBottom=0;align=center;fontSize=14;fillColor=#d5e8d4;strokeColor=#82b366;" vertex="1" parent="1">
          <mxGeometry x="1040" y="520" width="160" height="120" as="geometry" />
        </mxCell>
        <mxCell id="vX_4dW7MwvL4V05lAI9i-97" value="&lt;span style=&quot;text-wrap-mode: nowrap;&quot;&gt;・指定した蔵書の&lt;/span&gt;&lt;div&gt;&lt;span style=&quot;text-wrap-mode: nowrap;&quot;&gt;　貸出し履歴を一覧表示&lt;/span&gt;&lt;div&gt;&lt;span style=&quot;text-wrap-mode: nowrap;&quot;&gt;　（表示するだけ&lt;/span&gt;&lt;span style=&quot;text-wrap-mode: nowrap; background-color: transparent; color: light-dark(rgb(0, 0, 0), rgb(255, 255, 255));&quot;&gt;）&lt;/span&gt;&lt;/div&gt;&lt;/div&gt;" style="text;strokeColor=none;fillColor=none;spacingLeft=4;spacingRight=4;overflow=hidden;rotatable=0;points=[[0,0.5],[1,0.5]];portConstraint=eastwest;fontSize=12;whiteSpace=wrap;html=1;" vertex="1" parent="vX_4dW7MwvL4V05lAI9i-96">
          <mxGeometry y="26" width="160" height="54" as="geometry" />
        </mxCell>
        <mxCell id="vX_4dW7MwvL4V05lAI9i-98" value="&lt;span style=&quot;text-wrap-mode: nowrap;&quot;&gt;・司書ユーザー画面&lt;/span&gt;&lt;div&gt;&lt;span style=&quot;text-wrap-mode: nowrap;&quot;&gt;　へのリンク&lt;/span&gt;&lt;/div&gt;" style="text;strokeColor=none;fillColor=none;spacingLeft=4;spacingRight=4;overflow=hidden;rotatable=0;points=[[0,0.5],[1,0.5]];portConstraint=eastwest;fontSize=12;whiteSpace=wrap;html=1;" vertex="1" parent="vX_4dW7MwvL4V05lAI9i-96">
          <mxGeometry y="80" width="160" height="40" as="geometry" />
        </mxCell>
        <mxCell id="vX_4dW7MwvL4V05lAI9i-99" value="蔵書新規登録" style="swimlane;fontStyle=1;childLayout=stackLayout;horizontal=1;startSize=26;horizontalStack=0;resizeParent=1;resizeParentMax=0;resizeLast=0;collapsible=1;marginBottom=0;align=center;fontSize=14;fillColor=#d5e8d4;strokeColor=#82b366;" vertex="1" parent="1">
          <mxGeometry x="1040" y="720" width="160" height="150" as="geometry" />
        </mxCell>
        <mxCell id="vX_4dW7MwvL4V05lAI9i-100" value="&lt;span style=&quot;text-wrap-mode: nowrap;&quot;&gt;・新しい蔵書の情報など&lt;/span&gt;&lt;div&gt;&lt;span style=&quot;background-color: transparent; color: light-dark(rgb(0, 0, 0), rgb(255, 255, 255)); text-wrap-mode: nowrap;&quot;&gt;　の入力欄&lt;/span&gt;&lt;div&gt;&lt;span style=&quot;background-color: transparent; text-wrap-mode: nowrap; color: light-dark(rgb(0, 0, 0), rgb(255, 255, 255));&quot;&gt;　→&lt;/span&gt;&lt;span style=&quot;text-wrap-mode: nowrap; background-color: transparent; color: light-dark(rgb(0, 0, 0), rgb(255, 255, 255));&quot;&gt;「新規登録」ボタン&lt;/span&gt;&lt;/div&gt;&lt;/div&gt;&lt;div&gt;&lt;div&gt;&lt;span style=&quot;background-color: transparent; text-wrap-mode: nowrap; color: light-dark(rgb(0, 0, 0), rgb(255, 255, 255));&quot;&gt;　※ISBNありの場合は&lt;/span&gt;&lt;/div&gt;&lt;div&gt;&lt;span style=&quot;background-color: transparent; text-wrap-mode: nowrap; color: light-dark(rgb(0, 0, 0), rgb(255, 255, 255));&quot;&gt;　APIで書籍情報入手&lt;/span&gt;&lt;/div&gt;&lt;/div&gt;" style="text;strokeColor=none;fillColor=none;spacingLeft=4;spacingRight=4;overflow=hidden;rotatable=0;points=[[0,0.5],[1,0.5]];portConstraint=eastwest;fontSize=12;whiteSpace=wrap;html=1;" vertex="1" parent="vX_4dW7MwvL4V05lAI9i-99">
          <mxGeometry y="26" width="160" height="84" as="geometry" />
        </mxCell>
        <mxCell id="vX_4dW7MwvL4V05lAI9i-101" value="・&lt;span style=&quot;text-wrap-mode: nowrap;&quot;&gt;司書ユーザ画面&lt;/span&gt;&lt;div&gt;&lt;span style=&quot;background-color: transparent; text-wrap-mode: nowrap; color: light-dark(rgb(0, 0, 0), rgb(255, 255, 255));&quot;&gt;　へのリンク&lt;/span&gt;&lt;/div&gt;" style="text;strokeColor=none;fillColor=none;spacingLeft=4;spacingRight=4;overflow=hidden;rotatable=0;points=[[0,0.5],[1,0.5]];portConstraint=eastwest;fontSize=12;whiteSpace=wrap;html=1;" vertex="1" parent="vX_4dW7MwvL4V05lAI9i-99">
          <mxGeometry y="110" width="160" height="40" as="geometry" />
        </mxCell>
        <mxCell id="vX_4dW7MwvL4V05lAI9i-102" value="レビュー書込・削除" style="swimlane;fontStyle=1;childLayout=stackLayout;horizontal=1;startSize=26;horizontalStack=0;resizeParent=1;resizeParentMax=0;resizeLast=0;collapsible=1;marginBottom=0;align=center;fontSize=14;fillColor=#d5e8d4;strokeColor=#82b366;" vertex="1" parent="1">
          <mxGeometry x="1280" y="840" width="160" height="100" as="geometry" />
        </mxCell>
        <mxCell id="vX_4dW7MwvL4V05lAI9i-103" value="&lt;span style=&quot;text-wrap-mode: nowrap;&quot;&gt;・&lt;/span&gt;&lt;span style=&quot;text-wrap-mode: nowrap;&quot;&gt;ISBN・雑誌IDを表示&lt;/span&gt;&lt;div&gt;&lt;span style=&quot;text-wrap-mode: nowrap;&quot;&gt;　レビューの入力欄&lt;/span&gt;&lt;/div&gt;&lt;div&gt;&lt;span style=&quot;text-wrap-mode: nowrap;&quot;&gt;　→「書込」ボタン&lt;/span&gt;&lt;/div&gt;&lt;div&gt;&lt;span style=&quot;text-wrap-mode: nowrap;&quot;&gt;　→「削除」ボタン&lt;/span&gt;&lt;/div&gt;" style="text;strokeColor=none;fillColor=none;spacingLeft=4;spacingRight=4;overflow=hidden;rotatable=0;points=[[0,0.5],[1,0.5]];portConstraint=eastwest;fontSize=12;whiteSpace=wrap;html=1;" vertex="1" parent="vX_4dW7MwvL4V05lAI9i-102">
          <mxGeometry y="26" width="160" height="74" as="geometry" />
        </mxCell>
        <mxCell id="8F1UV5mn62PadbcKWEMw-20" value="蔵書貸出し" style="swimlane;fontStyle=1;childLayout=stackLayout;horizontal=1;startSize=26;horizontalStack=0;resizeParent=1;resizeParentMax=0;resizeLast=0;collapsible=1;marginBottom=0;align=center;fontSize=14;fillColor=#dae8fc;strokeColor=#6c8ebf;" vertex="1" parent="1">
          <mxGeometry x="280" y="720" width="160" height="110" as="geometry" />
        </mxCell>
        <mxCell id="8F1UV5mn62PadbcKWEMw-21" value="&lt;span style=&quot;text-wrap-mode: nowrap;&quot;&gt;・蔵書IDの入力欄&lt;/span&gt;&lt;div&gt;&lt;span style=&quot;text-wrap-mode: nowrap;&quot;&gt;　貸し出しボタン&lt;/span&gt;&lt;/div&gt;" style="text;strokeColor=none;fillColor=none;spacingLeft=4;spacingRight=4;overflow=hidden;rotatable=0;points=[[0,0.5],[1,0.5]];portConstraint=eastwest;fontSize=12;whiteSpace=wrap;html=1;" vertex="1" parent="8F1UV5mn62PadbcKWEMw-20">
          <mxGeometry y="26" width="160" height="44" as="geometry" />
        </mxCell>
        <mxCell id="8F1UV5mn62PadbcKWEMw-22" value="・&lt;span style=&quot;text-wrap-mode: nowrap;&quot;&gt;利用者ユーザー画面&lt;/span&gt;&lt;br&gt;&lt;div&gt;&lt;span style=&quot;text-wrap-mode: nowrap;&quot;&gt;　へのリンク&lt;/span&gt;&lt;/div&gt;" style="text;strokeColor=none;fillColor=none;spacingLeft=4;spacingRight=4;overflow=hidden;rotatable=0;points=[[0,0.5],[1,0.5]];portConstraint=eastwest;fontSize=12;whiteSpace=wrap;html=1;" vertex="1" parent="8F1UV5mn62PadbcKWEMw-20">
          <mxGeometry y="70" width="160" height="40" as="geometry" />
        </mxCell>
        <mxCell id="8F1UV5mn62PadbcKWEMw-23" value="" style="endArrow=open;endSize=12;startArrow=open;startSize=14;startFill=0;edgeStyle=orthogonalEdgeStyle;rounded=0;endFill=0;exitX=0.503;exitY=1.063;exitDx=0;exitDy=0;exitPerimeter=0;entryX=-0.001;entryY=0.243;entryDx=0;entryDy=0;entryPerimeter=0;" edge="1" parent="1" target="8F1UV5mn62PadbcKWEMw-22">
          <mxGeometry as="geometry">
            <mxPoint x="120.48000000000002" y="730.0000000000001" as="sourcePoint" />
            <mxPoint x="520" y="796.9440000000001" as="targetPoint" />
            <Array as="points">
              <mxPoint x="121" y="800" />
              <mxPoint x="280" y="800" />
            </Array>
          </mxGeometry>
        </mxCell>
      </root>
    </mxGraphModel>
  </diagram>
</mxfile>
